<?xml version="1.0" standalone="no"?>
<!DOCTYPE svg PUBLIC "-//W3C//DTD SVG 20010904//EN"
 "http://www.w3.org/TR/2001/REC-SVG-20010904/DTD/svg10.dtd">
<svg version="1.0" xmlns="http://www.w3.org/2000/svg"
 width="98.000000pt" height="75.000000pt" viewBox="0 0 98.000000 75.000000"
 preserveAspectRatio="xMidYMid meet">

<g transform="translate(0.000000,75.000000) scale(0.100000,-0.100000)"
fill="#000000" stroke="none">
<path d="M295 706 c-96 -31 -197 -84 -189 -98 4 -7 3 -8 -4 -4 -6 4 -21 2 -33
-5 -20 -10 -20 -12 -5 -27 13 -13 20 -14 34 -5 110 76 235 124 343 131 88 5
141 -9 176 -46 19 -21 22 -22 17 -6 -12 33 -46 64 -83 74 -63 17 -180 11 -256
-14z m-195 -122 c0 -8 -19 -13 -24 -6 -3 5 1 9 9 9 8 0 15 -2 15 -3z"/>
<path d="M412 659 c-63 -11 -132 -39 -225 -92 -65 -38 -67 -40 -51 -58 16 -18
18 -18 53 9 86 67 156 97 257 111 80 12 133 0 161 -36 25 -31 29 -27 11 12
-22 50 -106 72 -206 54z"/>
<path d="M395 582 c-58 -20 -129 -60 -174 -98 -25 -21 -29 -29 -20 -40 16 -19
21 -18 65 17 52 42 167 97 219 105 52 7 94 -10 112 -46 l13 -25 0 33 c0 52
-28 72 -102 72 -35 -1 -86 -8 -113 -18z"/>
<path d="M745 469 c-85 -71 -173 -112 -250 -117 -79 -5 -105 8 -105 51 0 24
-3 28 -10 17 -17 -27 -11 -70 15 -95 21 -22 33 -25 93 -25 43 0 91 8 130 21
70 23 216 114 207 128 -3 5 0 13 6 17 8 4 9 3 5 -4 -5 -8 -1 -10 9 -6 14 6 12
11 -11 35 -15 16 -28 29 -28 29 -1 0 -28 -23 -61 -51z"/>
<path d="M799 371 c-184 -125 -391 -148 -434 -49 -13 31 -14 31 -15 8 -1 -67
63 -104 175 -103 116 1 217 35 358 120 l58 35 -22 24 c-12 13 -25 24 -28 24
-3 -1 -45 -27 -92 -59z m108 7 c-3 -8 -6 -5 -6 6 -1 11 2 17 5 13 3 -3 4 -12
1 -19z"/>
<path d="M213 99 l-28 -43 -3 37 c-2 24 -8 37 -18 37 -11 0 -14 -15 -14 -65 0
-79 14 -84 56 -22 l29 42 3 -38 c3 -35 6 -38 30 -35 20 2 37 18 66 60 46 68
41 87 -8 33 l-35 -37 -3 33 c-2 26 -8 35 -25 37 -16 2 -29 -7 -50 -39z"/>
<path d="M407 133 c-4 -3 -7 -33 -7 -65 l0 -58 71 0 c44 0 68 4 64 10 -3 6
-26 10 -51 10 -37 0 -44 3 -44 20 0 17 7 20 46 20 27 0 43 4 39 10 -3 6 -24
10 -46 10 -28 0 -39 4 -39 15 0 11 12 15 45 15 25 0 45 5 45 10 0 11 -113 14
-123 3z"/>
<path d="M568 75 l-3 -65 66 0 c76 0 99 16 99 68 0 43 -30 62 -101 62 l-57 0
-4 -65z m120 12 c4 -35 -13 -57 -44 -57 -22 0 -24 4 -24 46 0 45 0 45 33 42
27 -2 33 -8 35 -31z"/>
<path d="M746 125 c-4 -12 3 -15 36 -15 l42 0 -49 -50 -49 -50 71 0 c40 0 75
5 78 10 4 6 -10 10 -34 10 -23 0 -41 4 -41 8 0 4 18 26 40 47 22 21 40 43 40
47 0 4 -29 8 -64 8 -48 0 -65 -4 -70 -15z"/>
<path d="M113 65 c0 -38 2 -53 4 -32 2 20 2 52 0 70 -2 17 -4 1 -4 -38z"/>
<path d="M133 65 c0 -38 2 -53 4 -32 2 20 2 52 0 70 -2 17 -4 1 -4 -38z"/>
</g>
</svg>
